<svg version="1.1" id="Layer_1" xmlns="http://www.w3.org/2000/svg" xmlns:xlink="http://www.w3.org/1999/xlink" x="0px" y="0px"
	 width="100%" viewBox="0 0 752 560" enable-background="new 0 0 752 560" xml:space="preserve">
<path fill="#000000" opacity="1.000000" stroke="none" 
	d="
M246.975754,120.965652 
	C250.053741,121.711273 249.324234,123.783264 248.422424,125.634865 
	C246.528000,129.524582 244.451462,133.325546 242.454468,137.165421 
	C241.715088,138.587067 240.430801,139.817947 240.987656,142.587280 
	C249.827682,136.413361 258.700256,131.035919 263.773865,121.427971 
	C264.938446,119.222572 265.728149,116.810211 267.595306,115.055557 
	C268.315643,114.378654 269.212341,113.761284 270.280487,114.411194 
	C271.482727,115.142677 270.042023,116.201485 270.703522,117.377441 
	C272.197174,115.249512 274.149384,114.513779 276.550293,113.676460 
	C282.068359,111.752029 284.680908,106.132751 287.541626,101.312317 
	C288.440155,99.798256 286.420807,98.356674 285.405365,97.095825 
	C279.416046,89.658852 276.681366,81.166664 276.709259,71.644287 
	C276.730865,64.270500 281.373840,58.725353 284.035614,52.410877 
	C284.881927,50.403244 287.287659,49.478386 289.462738,49.206764 
	C292.715820,48.800533 294.291260,47.273872 295.105774,43.991829 
	C297.092255,35.987358 302.106232,30.120140 309.217316,26.042044 
	C312.972168,23.888704 316.816437,21.890537 320.557739,19.714626 
	C323.227448,18.161926 324.992493,18.728256 325.868622,21.680813 
	C327.031281,25.599096 329.524628,28.333426 333.128754,30.130249 
	C339.424591,33.269012 340.641571,39.402771 341.986084,46.749523 
	C344.812775,43.791031 346.860382,41.510620 349.053406,39.379906 
	C354.406586,34.178799 360.789032,30.123226 368.265198,31.886442 
	C374.415558,33.336983 380.140900,34.726910 386.621521,34.097980 
	C390.653412,33.706696 394.516144,36.592125 395.484314,41.456757 
	C396.107147,44.586254 397.325409,46.668541 401.063690,47.305706 
	C405.513397,48.064133 407.074310,51.692760 405.488892,55.685062 
	C403.657318,60.297230 403.144867,64.910652 403.019470,69.781967 
	C402.909027,74.071266 400.558899,77.665916 397.823608,80.903755 
	C396.672760,82.266045 395.445923,83.564125 393.578217,85.643280 
	C401.541504,84.469490 408.350739,84.872154 414.842316,88.183739 
	C417.654572,89.618378 420.720306,87.775017 423.706726,87.762276 
	C430.730896,87.732323 432.215637,89.462265 430.311768,96.094437 
	C429.762421,98.008133 429.010498,99.865570 428.311768,101.733948 
	C427.621246,103.580421 426.880554,105.408119 425.856018,108.025299 
	C432.248688,108.575775 438.107147,109.025414 443.954193,109.592712 
	C479.098633,113.002548 513.129944,121.349709 546.419373,132.895248 
	C587.246094,147.054932 625.909119,165.579071 660.917053,191.112671 
	C684.035767,207.974640 704.151123,227.716370 716.837158,253.948471 
	C727.767090,276.549530 728.248901,299.428070 718.471619,322.532166 
	C707.896362,347.521820 689.406006,365.728119 667.722778,381.007538 
	C651.274414,392.598083 633.651917,401.895966 613.605042,405.744415 
	C608.813477,406.664276 603.932495,406.841003 599.184631,405.980530 
	C584.905701,403.392609 578.261047,393.855103 579.945251,378.853882 
	C580.032043,378.080841 580.174561,377.313995 580.417114,375.712158 
	C571.052734,384.223328 561.953491,391.695923 551.887207,397.910492 
	C547.296387,400.744690 542.425598,402.810242 537.098511,403.696075 
	C528.585510,405.111725 521.923828,399.503357 521.889465,390.792603 
	C521.868469,385.455627 523.315979,380.363770 526.012451,374.130676 
	C515.945923,382.625610 507.315765,390.444733 497.727722,397.061310 
	C490.990570,401.710510 484.082336,406.057404 476.119324,408.322266 
	C462.723206,412.132416 451.835419,403.992523 451.675537,390.110107 
	C451.643127,387.294861 451.670868,384.478943 451.670868,381.063843 
	C447.303955,383.250061 444.693665,386.759003 441.441010,389.413086 
	C437.291412,392.799133 433.082642,396.023956 428.145935,398.187256 
	C422.697601,400.574799 417.256134,401.609833 412.094910,397.597870 
	C406.934174,393.586273 406.111115,387.842133 406.383881,381.863953 
	C406.525818,378.752014 407.194214,375.664062 407.759369,371.596588 
	C400.642029,378.133759 394.280792,384.124756 387.750244,389.925140 
	C382.996490,394.147369 377.838318,397.765228 371.567535,399.545502 
	C362.382904,402.152985 355.972351,397.161591 356.386047,387.559021 
	C356.649292,381.448975 358.858337,375.873627 361.251831,370.359070 
	C361.965668,368.714264 362.709106,367.082275 363.884430,364.444916 
	C356.320740,366.633484 349.716766,367.615204 344.756897,373.633240 
	C320.881775,402.602264 292.402374,425.744873 257.580017,440.437164 
	C234.383942,450.224060 210.351639,455.425049 185.002213,452.249451 
	C184.011536,452.125336 182.871231,452.260742 182.056793,451.811188 
	C175.047256,447.941956 170.915863,451.757812 166.038193,456.533997 
	C145.019394,477.115417 121.274193,493.369141 91.905441,499.625763 
	C79.910332,502.181183 67.728767,502.738678 55.819393,499.160278 
	C35.275692,492.987518 28.807924,477.162842 32.399647,457.795349 
	C35.872070,439.071136 46.908596,424.761841 61.084133,412.739624 
	C89.399269,388.725647 122.974197,376.822662 158.998383,370.672668 
	C175.784866,367.806915 192.675339,366.259216 209.711853,366.762238 
	C212.931610,366.857330 214.948746,365.727997 216.596985,362.955292 
	C226.556732,346.200928 236.497513,329.432068 246.726669,312.841949 
	C261.598389,288.722351 276.869415,264.866791 295.984283,243.759155 
	C299.237823,240.166443 302.639099,236.735321 306.543427,233.869400 
	C308.267059,232.604172 310.168427,231.365891 312.182922,230.760895 
	C315.456604,229.777771 319.766266,228.000565 321.872314,231.370499 
	C323.816559,234.481491 319.464478,236.301331 317.552643,238.269897 
	C303.673065,252.561020 292.023895,268.582520 281.146881,285.168030 
	C264.516052,310.527100 249.229095,336.710449 234.166046,363.022369 
	C233.433609,364.301788 232.835968,365.658417 232.009796,367.310516 
	C235.864212,369.503479 239.974518,368.764008 243.807053,369.119171 
	C260.707489,370.685455 277.608063,372.643494 294.593567,372.604767 
	C304.561523,372.582031 314.525879,371.392059 324.494019,370.761322 
	C326.807983,370.614929 328.522400,369.642242 330.001038,367.819305 
	C353.489349,338.861603 371.724670,307.296448 378.977844,270.182831 
	C384.882568,239.969025 369.564484,215.187180 339.814911,207.283371 
	C319.686646,201.935715 299.458221,203.453964 279.443146,207.608383 
	C247.226364,214.295380 217.647873,227.288177 190.944626,246.610367 
	C174.508163,258.503662 160.658905,272.648743 152.390778,291.577667 
	C149.275970,298.708649 147.643433,306.050934 148.049957,313.899445 
	C148.613480,324.778748 154.264099,332.434387 164.650421,335.753784 
	C166.075195,336.209137 167.551163,336.502747 168.998611,336.889313 
	C170.364441,337.254059 171.687881,337.833801 171.353546,339.537048 
	C171.014359,341.265076 169.542130,341.158600 168.155548,341.075592 
	C154.818588,340.276825 142.720047,329.467743 139.785309,315.958099 
	C136.520660,300.929779 141.188965,287.598877 148.668549,275.030914 
	C161.715607,253.107925 181.484161,238.585159 203.373947,226.604904 
	C229.976242,212.045486 258.434753,202.958679 288.469025,199.156906 
	C315.565552,195.727020 342.059418,197.328506 366.412018,211.563614 
	C388.816193,224.659775 397.391235,246.674683 394.595428,270.555573 
	C390.743866,303.454132 375.347290,331.523163 356.685394,358.100555 
	C355.677277,359.536224 354.182709,360.727448 354.008423,363.018799 
	C361.298035,361.511841 367.616638,359.195343 372.391571,352.998383 
	C381.127594,341.660614 391.612579,332.205292 404.936981,326.380981 
	C407.061707,325.452240 409.329071,324.798004 411.583771,324.227417 
	C420.677856,321.925934 424.792114,323.623810 429.559204,331.549957 
	C431.201752,330.014587 432.875183,328.510895 434.478760,326.936066 
	C436.497467,324.953552 438.987030,324.116241 441.711914,323.984161 
	C443.556152,323.894745 445.583710,324.020264 446.675079,325.727142 
	C447.975342,327.760681 446.081207,329.064117 445.068054,330.508759 
	C434.980835,344.891998 426.295776,360.006500 420.982300,376.866425 
	C420.030334,379.887024 419.280182,382.954407 419.294281,386.170593 
	C419.323700,392.892548 422.940552,395.191193 429.073761,392.296783 
	C430.122406,391.801880 431.136078,391.191681 432.071350,390.505829 
	C434.354065,388.831909 436.448334,386.864075 438.852875,385.399384 
	C452.721191,376.951843 457.076385,362.498413 462.856537,348.679352 
	C478.959259,310.181030 500.077484,274.565613 526.646179,242.350510 
	C537.354919,229.365967 549.187988,217.333359 563.415649,208.036697 
	C569.565369,204.018326 576.080139,200.710922 583.519104,199.587891 
	C596.754211,197.589828 603.141785,204.743301 599.637329,217.810669 
	C596.985229,227.699921 591.396667,236.027985 584.975220,243.709183 
	C557.550659,276.513947 526.177063,304.940918 490.164490,328.112579 
	C487.525513,329.810577 485.634430,331.847656 484.298431,334.662018 
	C477.013611,350.008240 469.390045,365.213379 465.903534,382.034302 
	C464.981903,386.481018 464.570892,390.940948 465.740479,395.383881 
	C466.849365,399.596222 469.544006,401.772522 474.062744,401.825439 
	C478.232025,401.874176 481.963867,400.579559 485.460876,398.592865 
	C502.102051,389.138672 517.221252,377.443115 529.875305,363.281647 
	C538.205261,353.959351 544.235901,342.521240 550.866089,331.765472 
	C554.510681,325.853088 559.722595,322.956116 566.315186,324.568756 
	C570.408447,325.570099 570.855896,327.103912 568.324158,330.414032 
	C555.941833,346.603455 545.420410,363.919159 537.153931,382.567566 
	C535.801697,385.618164 534.889221,388.868530 535.124695,392.257874 
	C535.418640,396.488159 537.833862,398.129333 541.905396,396.901978 
	C548.230591,394.995300 553.589233,391.296051 558.866943,387.487335 
	C566.579651,381.921417 573.748230,375.699402 580.797302,369.325104 
	C582.603943,367.691437 583.607849,365.693207 584.646423,363.593567 
	C592.643311,347.425232 604.344116,334.760376 620.602783,326.724152 
	C626.268005,323.924042 632.343201,321.907593 638.920654,323.608978 
	C645.361389,325.274994 648.918762,330.690643 647.596375,337.157227 
	C645.500122,347.408020 638.329834,353.904449 630.292969,359.469788 
	C621.294373,365.701050 611.214172,369.731750 600.475464,371.771667 
	C596.889404,372.452850 595.349243,374.243561 594.600281,377.440491 
	C593.916992,380.357239 593.137939,383.217255 593.268188,386.284027 
	C593.587646,393.803009 598.976013,399.408203 606.492554,399.900909 
	C613.429199,400.355591 620.115723,399.205109 626.591187,396.783203 
	C661.392761,383.766937 689.919922,362.575623 709.075439,330.465790 
	C726.355469,301.499634 725.022705,272.209076 707.219727,243.556931 
	C693.931335,222.170441 675.570251,205.857513 655.219299,191.673492 
	C604.174683,156.096848 547.248840,134.286957 486.880157,120.828224 
	C468.022430,116.624046 448.892639,113.984650 429.630310,112.361984 
	C423.474304,111.843399 420.945465,114.376083 421.932220,120.475143 
	C422.188538,122.059547 422.010010,123.414665 421.339478,124.807465 
	C418.726196,130.235718 414.337463,134.990494 415.431976,141.810318 
	C415.683746,143.379227 414.210968,145.152527 412.511566,145.516449 
	C402.196411,147.725311 393.555542,154.368912 383.079834,156.263031 
	C371.133789,158.422958 360.244629,155.411621 349.778839,150.260391 
	C339.863312,145.380020 330.892181,139.005478 322.877716,131.372726 
	C320.350098,128.965515 318.084991,128.087952 314.489441,129.580658 
	C310.450073,131.257629 305.850586,131.358414 301.947296,128.914810 
	C299.459473,127.357338 297.266724,127.632820 294.857910,128.418121 
	C279.170593,133.532349 264.017365,139.897430 249.451859,148.304733 
	C277.821014,137.794754 305.030884,140.216034 331.105560,154.487396 
	C331.395752,155.818085 330.938049,156.478561 330.222412,156.985214 
	C305.960541,174.162308 280.243164,175.614410 254.373657,161.973526 
	C243.399338,156.186829 233.655273,157.696060 224.614197,163.085007 
	C202.736008,176.125580 182.512589,193.411484 167.942368,215.783432 
	C195.311264,183.456070 229.748474,169.889038 271.729828,176.273239 
	C272.061890,178.035614 270.750702,178.704559 269.687561,179.407578 
	C256.152740,188.357971 242.371429,196.711777 225.786621,198.842163 
	C216.631790,200.018127 208.522537,203.659836 201.685257,209.976151 
	C195.363083,215.816574 188.047745,219.992493 180.040924,223.108353 
	C160.249832,230.810059 145.776169,244.245300 135.996216,263.161407 
	C128.091843,278.449799 121.307869,294.126923 116.254311,310.571625 
	C115.705315,312.358124 115.710663,314.568695 113.289307,315.910400 
	C112.012543,313.537048 112.919327,311.381805 113.403534,309.211304 
	C116.867775,293.682465 123.151909,279.145508 129.100006,264.490143 
	C132.111832,257.069366 134.344910,249.442657 136.095169,241.607758 
	C137.802368,233.965561 136.398285,227.179092 132.761856,220.460770 
	C128.411682,212.423798 123.717659,204.560303 121.348839,195.552719 
	C118.222984,183.666382 119.875824,172.418457 125.099159,161.562622 
	C127.624428,156.314316 130.522247,151.245056 133.259674,146.099167 
	C133.869904,144.952042 134.439697,143.743332 136.663208,143.239044 
	C137.751770,155.035965 146.619659,162.834290 151.227127,172.869492 
	C156.187653,183.673660 156.840744,194.693924 153.733643,205.974060 
	C151.606720,213.695816 148.388290,221.068817 144.842575,228.216034 
	C142.121490,233.700989 141.176254,239.519394 139.942566,245.374496 
	C148.759949,230.060776 159.670685,216.290695 170.413101,202.370636 
	C176.244980,194.813660 180.022659,186.007080 182.435944,176.748978 
	C183.530762,172.548920 182.358841,168.485138 180.185089,164.755539 
	C178.423416,161.733002 176.463272,158.811935 174.896194,155.692596 
	C167.590805,141.150848 170.612442,127.587570 179.035110,114.604340 
	C180.736420,111.981865 182.434250,112.700119 184.277679,114.575829 
	C196.625824,127.140068 201.461136,141.665863 195.702271,158.842499 
	C193.752823,164.656921 192.281601,170.724777 188.310028,175.678955 
	C186.729218,177.650848 187.333832,180.149170 186.619385,182.614990 
	C188.347229,182.572311 189.111206,181.455688 189.721924,180.462906 
	C197.480179,167.851212 205.927948,155.623779 210.643341,141.352951 
	C211.852722,137.692810 211.691254,134.534439 209.717499,131.363632 
	C207.958801,128.538315 206.274567,125.659241 204.376663,122.929611 
	C200.709198,117.654900 199.123184,111.915298 199.627640,105.479919 
	C200.129745,99.074471 198.060364,93.382416 194.338959,88.172539 
	C191.719467,84.505333 189.285507,80.717377 189.847229,75.799301 
	C190.128693,73.334808 190.652435,71.067436 193.145096,70.105270 
	C195.734573,69.105751 198.250778,69.850189 199.953766,71.913727 
	C202.343872,74.809868 205.763367,76.291321 208.919983,79.588867 
	C208.816727,72.373672 207.729492,65.901123 209.955109,59.713696 
	C211.162598,56.356819 211.618698,52.431911 216.425797,51.846642 
	C221.325592,51.250092 224.611252,53.007366 227.146591,57.286148 
	C230.741928,63.353851 233.161850,69.805405 234.638626,77.838554 
	C243.168488,67.377663 256.121460,64.712914 264.597595,55.307442 
	C259.966278,70.809456 267.091766,87.196579 259.396454,102.164192 
	C256.008667,108.753578 252.335754,114.974541 246.893005,120.874176 
	C239.582428,126.133545 232.462326,130.357697 224.478333,133.087524 
	C220.263306,134.528702 216.861237,137.169601 215.399490,141.717377 
	C213.194000,148.579102 209.708908,154.834869 206.290985,161.140961 
	C204.375626,164.674835 201.839294,167.954712 200.361450,173.063385 
	C206.839783,168.459213 212.294937,164.432541 217.900574,160.627502 
	C232.313034,150.844543 240.372314,136.449081 246.975754,120.965652 
M78.498505,495.865601 
	C87.451714,494.661865 96.162933,492.604858 104.367889,488.685730 
	C122.502213,480.023804 137.917709,467.690521 151.672806,453.239380 
	C173.958359,429.826019 191.442413,402.850494 208.615631,375.665253 
	C209.300568,374.580994 210.321442,373.577301 209.954712,372.014618 
	C208.552307,370.759277 206.810440,371.297394 205.222076,371.283813 
	C187.000275,371.127960 169.052750,373.465698 151.284958,377.356995 
	C121.288742,383.926361 93.392418,395.194550 69.511818,414.942230 
	C55.961975,426.147003 45.047783,439.521973 39.873966,456.700409 
	C34.788902,473.584259 40.418766,487.783051 54.616093,493.608490 
	C61.910175,496.601410 69.710716,497.596771 78.498505,495.865601 
M297.407684,401.902893 
	C306.709961,393.792786 315.402222,385.103668 323.749390,375.025909 
	C321.626526,375.025909 320.461945,374.934204 319.315430,375.039337 
	C291.474487,377.593201 263.738068,374.995728 236.039948,372.838104 
	C229.948563,372.363586 227.163330,374.015839 224.222046,378.852051 
	C214.444397,394.929169 204.293091,410.786011 192.786774,425.715363 
	C188.056702,431.852600 183.265732,437.942841 178.468796,444.097687 
	C180.735443,446.057800 183.065933,446.293365 185.338226,446.699982 
	C201.540131,449.599304 217.185547,446.792267 232.468643,441.639435 
	C256.862335,433.414978 277.725464,419.262573 297.407684,401.902893 
M524.451904,265.894440 
	C511.764557,283.834473 501.140808,302.990906 491.069824,322.579498 
	C497.216156,318.553680 503.115143,314.306335 508.931427,309.948730 
	C536.521179,289.278351 561.493042,265.870911 582.588257,238.532349 
	C588.063538,231.436646 593.190308,223.941925 595.300781,214.953415 
	C597.137146,207.132538 592.780029,202.845459 585.056885,204.828644 
	C581.305664,205.791885 577.905640,207.499176 574.829834,209.880203 
	C554.842834,225.352249 539.153564,244.694733 524.451904,265.894440 
M373.757538,83.986824 
	C368.774506,84.336174 365.193390,87.587608 361.191437,89.999222 
	C358.199280,91.802322 355.092834,93.415138 352.044830,95.126190 
	C344.998871,99.081566 337.834381,102.848610 330.529388,108.282402 
	C332.008575,108.020325 332.477020,107.978294 332.921844,107.852592 
	C351.249634,102.673347 368.158478,93.948135 385.635590,86.653175 
	C393.287262,83.459381 400.203552,73.328300 399.417603,66.749214 
	C399.020935,63.429291 399.407043,60.569107 400.900421,57.626965 
	C401.965088,55.529507 403.770721,53.042656 400.583710,51.103497 
	C397.671570,49.331608 395.313629,50.225845 393.111481,52.677570 
	C391.731018,54.214474 390.747131,56.591888 387.830200,56.728065 
	C388.035706,53.743462 389.933044,52.145775 391.154175,50.283573 
	C393.513519,46.685555 393.171387,43.207981 390.808075,40.068035 
	C388.418823,36.893539 384.775085,36.759094 381.223419,37.665791 
	C378.604980,38.334240 376.447205,39.919777 374.618164,41.967957 
	C373.615906,43.090282 372.795319,44.750580 370.769196,44.395031 
	C370.092590,41.514725 374.857239,39.253311 371.479218,36.595814 
	C368.243652,34.050385 364.539124,34.827656 360.987091,36.064323 
	C357.139954,37.403740 354.084137,39.910297 351.060211,42.598694 
	C344.439667,48.484623 342.600525,57.245697 337.818512,64.066261 
	C330.414886,74.625885 328.903351,87.173798 323.100891,99.281364 
	C324.458618,98.406090 324.944458,98.247749 325.188416,97.913071 
	C331.803070,88.838829 336.599518,78.579643 345.170105,70.732857 
	C350.753784,65.620766 355.598633,59.571457 361.221436,54.374096 
	C361.826752,53.814613 362.659424,53.491032 363.849182,54.602695 
	C358.406281,60.967815 351.918945,66.507545 347.253082,73.512779 
	C342.501617,80.646622 338.149872,88.046722 332.853149,96.569099 
	C355.590393,77.638535 362.982880,72.992088 369.353027,74.390602 
	C353.793945,81.790390 341.419525,91.957436 330.426697,103.867111 
	C338.293884,99.802139 345.792206,95.156609 353.631866,91.184761 
	C361.797791,87.047615 368.387543,81.149155 374.849182,74.844666 
	C380.955933,68.886398 386.250763,61.963470 393.836609,57.579033 
	C387.714081,66.742119 379.555023,73.982552 371.887909,81.646263 
	C372.657104,82.343559 373.252716,82.883507 373.757538,83.986824 
M301.920258,80.429565 
	C302.030029,78.034592 299.884460,75.784523 301.773865,72.536835 
	C305.387756,79.615997 305.983734,87.107521 308.782867,94.695793 
	C309.532806,80.737991 308.953674,67.403625 314.425171,54.954605 
	C314.001770,67.219421 311.429871,79.318390 312.571686,92.139519 
	C314.499664,79.633698 314.808838,67.299034 320.381714,56.064213 
	C317.234314,72.912132 316.215881,89.890984 315.627075,106.945587 
	C319.867645,98.734627 323.269928,90.267189 325.290863,81.331276 
	C326.827698,74.535774 329.651062,68.379761 333.821716,62.896805 
	C336.123505,59.870712 337.399017,56.490723 338.280029,52.957668 
	C340.248138,45.065578 336.455872,35.916603 330.378082,33.531609 
	C328.374298,38.539841 328.928772,44.608269 324.032227,49.688629 
	C323.753326,44.497566 325.628204,40.887283 326.317596,37.071842 
	C327.261200,31.849413 326.699585,29.951406 322.622620,26.413710 
	C321.110077,32.690166 319.604218,38.938934 318.098328,45.187702 
	C317.475159,45.055019 316.851990,44.922337 316.228821,44.789654 
	C317.229523,38.714577 318.230225,32.639500 319.279846,26.267534 
	C306.988403,37.732372 300.227020,51.295677 301.567413,69.545654 
	C297.312653,64.741722 297.404114,60.138210 295.737335,56.247963 
	C294.052155,52.314816 291.828461,51.520050 288.526276,54.197296 
	C284.941742,57.103439 284.672028,60.864040 286.140259,65.049294 
	C288.298187,71.200623 288.221893,71.227386 287.163147,74.218521 
	C284.593903,72.152733 285.116028,67.945473 281.854462,66.215782 
	C277.583954,80.568420 285.583618,97.648621 299.708008,103.388039 
	C296.863831,99.169685 294.181946,95.661644 292.022736,91.856995 
	C289.884674,88.089561 288.482086,83.983902 289.615265,79.331238 
	C292.812225,89.627495 298.506561,98.130302 306.549866,105.537811 
	C305.714111,97.088951 303.735260,89.194023 301.920258,80.429565 
M349.439026,116.071846 
	C346.659790,116.437851 343.855286,116.749695 342.000397,119.505302 
	C350.724701,120.549438 359.288177,117.584221 367.888550,119.581398 
	C361.838654,121.316589 355.703583,122.176865 349.446838,122.183098 
	C343.113281,122.189407 336.779694,122.184486 330.446136,122.184486 
	C338.642395,124.048058 346.817596,125.558723 355.061951,126.314110 
	C366.479431,127.360229 377.520020,132.666061 389.331909,129.468262 
	C389.573822,129.402756 389.996521,130.005188 391.019928,130.884796 
	C377.762360,134.825806 364.978607,136.199554 351.250000,134.018570 
	C354.417938,137.920044 359.510529,136.950058 362.343811,140.344849 
	C351.503326,143.970673 342.927490,137.157150 332.902802,134.727310 
	C353.984589,154.162964 382.532715,158.640594 398.995422,145.388382 
	C392.949097,145.060959 386.903198,146.311417 381.070526,144.076477 
	C387.572754,143.015732 394.079285,142.290939 400.593872,142.209534 
	C410.409058,142.086868 410.417572,142.279190 412.112427,133.281204 
	C412.195099,132.842209 412.007019,132.352203 411.960602,132.003082 
	C410.231445,130.647507 407.855804,132.273071 406.148621,130.265427 
	C409.057739,128.007126 413.254578,129.975189 415.829285,126.962540 
	C418.616150,123.701630 418.813660,120.659874 415.586121,117.538651 
	C417.653900,116.433731 419.896545,115.946594 419.627930,113.313988 
	C419.479065,111.855240 418.367676,111.352036 417.132782,111.409142 
	C412.713898,111.613503 408.167999,110.217125 403.904327,112.530861 
	C402.216675,113.446724 400.274139,113.666153 398.667236,112.531395 
	C396.707306,111.147377 394.579926,111.198799 392.443268,111.305298 
	C387.796326,111.536903 383.081573,111.499092 378.529755,112.320503 
	C369.144958,114.014061 359.429138,112.934479 349.439026,116.071846 
M369.605591,384.951294 
	C369.188019,387.662079 367.521667,390.790924 370.570587,392.747803 
	C373.407227,394.568481 375.999664,392.347687 378.351349,390.951111 
	C383.676971,387.788483 388.024628,383.363220 392.713562,379.379730 
	C405.829620,368.237030 416.003387,354.788971 424.138885,339.689758 
	C425.984070,336.265137 425.681641,333.157623 423.281830,330.477234 
	C420.925262,327.845154 417.860504,328.431763 415.012207,329.902679 
	C412.945282,330.970062 410.748840,331.931641 408.963593,333.376984 
	C391.883301,347.205719 378.182831,363.666107 369.605591,384.951294 
M410.173492,99.554108 
	C414.498993,98.162361 418.975586,97.103142 422.944061,93.951157 
	C419.714203,93.061348 416.707367,92.682907 414.113495,91.441597 
	C401.956512,85.623825 390.068054,88.725098 378.980743,93.600212 
	C361.961029,101.083817 345.186310,109.143806 328.097351,116.624039 
	C339.384125,112.693710 351.488342,112.140800 362.714996,107.939568 
	C370.209534,105.134964 377.864899,102.875465 385.840607,101.994438 
	C387.841522,101.773415 390.279144,100.770462 392.411560,103.651871 
	C384.981964,105.253944 377.823730,105.733315 371.201935,108.376305 
	C385.339081,107.640694 399.418304,106.922211 413.546234,107.674034 
	C422.515198,108.151306 425.218475,105.435013 425.803894,95.945473 
	C419.255951,99.748703 412.349670,101.922302 403.615082,102.946564 
	C405.913483,100.336357 407.713898,100.103111 410.173492,99.554108 
M256.821564,98.256027 
	C259.452606,91.403717 260.323425,84.365936 259.510498,76.155670 
	C257.042053,80.435219 259.597656,84.914696 256.234528,88.470779 
	C253.324814,84.381500 256.666809,80.128555 255.252182,76.039772 
	C251.275482,78.573196 251.761826,84.183067 247.027222,86.358742 
	C247.083771,80.741493 251.692673,77.148109 252.132385,71.929565 
	C249.457611,72.925766 248.976639,75.985107 246.416092,76.246719 
	C246.176102,76.112740 246.026947,76.044350 245.893738,75.952789 
	C244.677551,75.116997 246.423737,73.798096 245.313858,72.755157 
	C231.130280,83.206184 230.631378,99.450378 226.370041,114.064819 
	C226.896973,114.313545 227.423920,114.562271 227.950851,114.810997 
	C231.630829,107.034554 235.310806,99.258118 238.990784,91.481674 
	C239.452713,91.711922 239.914642,91.942169 240.376572,92.172424 
	C239.554871,98.201485 235.328217,103.286324 234.718155,109.886269 
	C238.130417,107.149612 238.350784,102.438004 243.331268,100.195602 
	C240.804489,108.034531 236.166687,113.476929 232.623596,119.632736 
	C234.219986,119.944611 235.255722,118.409470 236.541794,119.903091 
	C234.887207,123.906044 230.167587,124.972435 227.607605,128.440353 
	C241.916458,122.949524 251.230621,112.912354 256.821564,98.256027 
M271.487518,165.059860 
	C282.238800,167.236023 292.993530,168.797501 305.005920,165.618835 
	C301.905457,164.655624 299.459473,165.850357 297.824493,163.238953 
	C303.506805,161.240417 309.705780,161.839844 314.931244,158.425781 
	C309.484314,157.388031 303.933685,158.721802 298.153534,155.577698 
	C304.215698,153.864807 309.587158,155.631699 314.828339,154.211700 
	C308.429108,145.072266 281.163849,142.170685 267.424713,147.655396 
	C273.066864,148.383163 279.132233,146.665817 284.635101,149.400665 
	C274.853302,151.655136 264.910522,150.710281 255.150116,152.225204 
	C264.487244,152.420624 273.237976,154.830322 281.834869,158.139267 
	C271.859009,158.084839 262.144775,154.505188 251.533173,156.526794 
	C257.804901,160.579712 264.270752,162.670319 271.487518,165.059860 
M606.334839,353.829773 
	C603.807922,358.189545 600.423340,362.126251 599.256714,367.743622 
	C605.560669,367.055878 610.878296,364.750916 615.982239,362.135254 
	C625.685852,357.162292 634.656921,351.174438 639.891907,341.110138 
	C641.840271,337.364288 643.646362,332.963745 639.875061,329.645538 
	C636.204773,326.416199 632.002258,328.371765 628.411865,330.752411 
	C626.206970,332.214417 624.169189,333.946259 622.149414,335.666168 
	C616.158569,340.767609 611.346802,346.912689 606.334839,353.829773 
M143.376038,202.633698 
	C143.376038,205.628632 143.376038,208.623566 143.376038,212.648972 
	C145.868347,204.285629 144.754700,196.544571 145.959015,189.015717 
	C149.843048,197.254379 147.644897,205.649582 146.316040,215.347977 
	C150.109573,207.858170 151.575516,201.318008 151.887222,194.387268 
	C152.524048,180.228241 145.893814,169.466827 136.178619,160.079514 
	C135.741028,165.058304 136.645874,170.163559 137.045609,175.976578 
	C134.081909,173.969238 134.058411,171.725815 133.668686,169.667709 
	C133.278152,167.605392 132.959564,165.529449 132.637497,163.625275 
	C126.132942,182.469131 132.789749,199.615784 139.796005,217.271683 
	C142.408035,205.331543 138.595551,194.108856 138.680710,182.736404 
	C142.628250,188.563751 141.914963,195.385818 143.376038,202.633698 
M172.650787,222.915314 
	C181.629730,218.661377 191.337204,215.696701 198.620056,208.423355 
	C205.844467,201.208374 214.721634,197.534256 224.622894,195.725342 
	C235.614822,193.717148 246.177322,190.413239 255.714310,184.105103 
	C234.218719,176.448700 176.542709,210.787613 168.045044,224.562393 
	C169.592606,224.040146 170.804977,223.631027 172.650787,222.915314 
M298.214813,121.870041 
	C300.915894,120.861031 302.079712,118.321220 303.717682,116.273979 
	C304.809143,114.909813 304.766785,113.418922 303.311188,112.330284 
	C299.380096,109.390182 295.385498,106.535034 291.525757,103.725990 
	C279.127563,117.404846 265.448639,128.785400 251.532639,139.950119 
	C266.521240,133.008286 281.902466,127.277016 298.214813,121.870041 
M181.074844,155.113953 
	C180.567856,151.752426 178.138535,148.607925 180.079254,143.409836 
	C182.302460,149.663483 184.052689,154.586670 185.887527,159.747879 
	C187.533234,152.703690 185.732468,145.991882 186.222000,139.279373 
	C191.104660,147.340393 188.430496,156.387299 189.827332,165.246735 
	C192.695145,157.686981 194.990555,150.422028 194.618607,142.581894 
	C194.179184,133.319427 190.553070,126.251595 184.877426,123.736206 
	C184.773453,126.157562 186.149033,128.726334 184.260117,131.554138 
	C182.155548,128.815338 182.550903,125.723846 181.343735,123.398933 
	C179.198120,126.397003 181.663116,130.509598 178.947845,133.724518 
	C176.502029,131.780655 178.060669,129.073639 177.278885,126.474388 
	C171.912888,138.914047 173.852661,150.762070 182.747543,160.478256 
	C182.171158,158.630020 181.732590,157.223679 181.074844,155.113953 
M208.783234,85.797005 
	C204.164871,78.078819 204.164871,78.078819 194.492828,80.831902 
	C194.101883,82.488327 195.018051,83.767555 195.914459,84.918243 
	C201.045944,91.505226 203.070755,98.794243 202.653900,107.237976 
	C202.404037,112.299553 203.890305,117.537849 208.507309,121.573334 
	C209.047195,117.267624 206.655792,113.717072 207.454712,110.360802 
	C208.872314,109.242378 208.799698,111.159683 209.781036,110.783180 
	C209.745789,103.140320 205.605865,96.480446 204.604218,89.034866 
	C209.952515,96.090225 211.368103,104.572083 213.549316,112.788231 
	C212.835495,103.872444 213.476120,94.747902 208.783234,85.797005 
M221.707855,99.112022 
	C223.112808,87.525146 221.122833,76.244972 218.595551,65.019135 
	C218.178802,63.168030 217.457535,61.374641 215.126694,61.428047 
	C213.001328,61.476749 212.579376,63.298996 212.094437,64.877754 
	C210.730743,69.317558 211.350723,73.722000 212.191711,78.187263 
	C213.971817,87.638779 215.544220,97.129410 217.201813,106.604004 
	C217.405243,106.581955 217.608673,106.559906 217.812103,106.537857 
	C217.812103,98.461395 217.812103,90.384926 217.812103,82.308464 
	C218.225327,82.303932 218.638565,82.299408 219.051788,82.294884 
	C221.294189,90.651657 220.416733,99.258827 220.643723,107.807045 
	C220.974167,105.211067 221.304611,102.615097 221.707855,99.112022 
M181.746735,208.081436 
	C202.187149,193.550690 224.522186,183.350769 249.401352,178.918915 
	C245.941681,177.771393 242.612747,177.870712 239.340027,178.403992 
	C219.750717,181.595917 202.066910,189.215607 186.585236,201.676697 
	C184.461990,203.385681 181.481705,204.701508 181.746735,208.081436 
M222.178391,70.614372 
	C225.414032,82.182167 224.673492,94.022560 224.400665,105.833488 
	C228.510712,90.542442 236.124969,75.265945 224.718033,59.826141 
	C218.513321,61.915592 221.885620,66.265015 222.178391,70.614372 
M128.658356,192.713821 
	C127.465355,183.367081 126.783974,174.012863 128.564423,164.622635 
	C120.010269,179.645874 123.336632,202.276825 136.266113,218.453979 
	C134.409103,209.820694 130.071152,202.130539 128.658356,192.713821 
M313.489777,126.313927 
	C314.328827,125.780640 315.286316,125.369278 315.984650,124.691071 
	C318.021515,122.712845 319.582153,120.238632 317.542511,117.671684 
	C315.523926,115.131256 312.625519,115.798309 310.402954,117.597260 
	C308.035217,119.513680 305.164856,121.160835 304.351929,124.563583 
	C306.749451,127.385925 309.817688,126.665062 313.489777,126.313927 
M301.110870,46.752186 
	C303.276306,41.201477 306.677155,36.322659 310.001038,31.401978 
	C300.970032,36.249409 296.411865,45.602909 299.532013,52.502178 
	C300.026062,50.617836 300.441925,49.031631 301.110870,46.752186 
M339.384888,128.193542 
	C349.662201,130.510513 359.987610,132.324417 370.560120,131.530121 
	C359.925690,130.012177 349.274353,128.695374 338.619232,127.410225 
	C338.121307,127.350166 338.033691,127.641792 338.418915,127.847809 
	C338.562927,127.924835 338.727936,127.962547 339.384888,128.193542 
z"/>
<path fill="#000000" opacity="1.000000" stroke="none" 
	d="
M668.406006,287.291046 
	C655.036255,299.006500 639.563049,304.282562 622.474915,306.457123 
	C622.165283,303.219604 623.510071,303.004883 624.825562,302.644775 
	C639.862671,298.528595 651.765198,290.005096 660.584290,277.156097 
	C661.053406,276.472656 661.600647,275.841248 662.130188,275.201050 
	C664.181580,272.720978 666.856995,272.000549 669.741455,273.152008 
	C672.921570,274.421539 672.412109,277.421356 672.255188,280.048676 
	C672.087219,282.859528 670.265747,284.906372 668.406006,287.291046 
z"/>
<path fill="#000000" opacity="1.000000" stroke="none" 
	d="
M567.477295,308.507874 
	C564.824951,300.552277 569.612793,294.071381 577.138428,294.664703 
	C580.567200,294.935028 582.435791,297.041077 582.752197,299.965973 
	C583.229065,304.375275 580.500854,307.349823 576.948853,309.571594 
	C573.693665,311.607727 570.515564,312.287933 567.477295,308.507874 
z"/>
</svg>